# xmcd
#
# Track frame offsets: 
#        150
#        9685
#        17630
#        24297
#        33915
#        42530
#        51897
#        61527
#        73188
#        80994
#        88460
#        95148
#        105052
#        113850
#        124917
#        133368
#        139795
#        151877
#        161495
#        168573
#        175356
#        184284
#        191042
#        199803
#        209789
#        217891
#        227272
#        236469
#        246519
#        252314
#
# Disc length: 3391 seconds
#
# Revision: 2
# Processed by: cddbd v1.5.2PL0 Copyright (c) Steve Scherf et al.
# Submitted via: ExactAudioCopy v1.3
#
DISCID=b60d3d1e
DTITLE=Speedy West featuring Jimmy Bryant - There's Gonna Be A Party .
DTITLE=. 
DYEAR=2000
DGENRE=Instrumental
TTITLE0=Lover
TTITLE1=Blue Bonnet Rag
TTITLE2=There's Gonna Be a Party for the Old Folks
TTITLE3=Tag Along
TTITLE4=The Birth of the Blues
TTITLE5=The Missouri Waltz
TTITLE6=Speedin' West
TTITLE7=Indian Love Call
TTITLE8=Cracker Jack
TTITLE9=Limehouse Blues
TTITLE10=Arkansas Traveler
TTITLE11=Whistle Stop
TTITLE12=T-Bone Rag
TTITLE13=Sleepwalker's Lullaby
TTITLE14=Two of a Kind
TTITLE15=Country Capers
TTITLE16=Honolulu
TTITLE17=I Love You So Much It Hurts
TTITLE18=This Ain't the Blues
TTITLE19=Texas Playboy Rag
TTITLE20=Kentucky Waltz
TTITLE21=Flippin' the Lid
TTITLE22=Let the Rest of the World Go By
TTITLE23=Railroadin'
TTITLE24=I'm Confessin' (That I Love You)
TTITLE25=Skiddle Dee Boo
TTITLE26=Hop, Skip and Jump
TTITLE27=Snow Deer
TTITLE28=Dragging the Steel
TTITLE29=Comedy with Tennessee Ernie Ford
EXTD=Transcriptions of performances from Tennessee Ernie Ford's radio 
EXTD=show
EXTT0=
EXTT1=
EXTT2=
EXTT3=
EXTT4=
EXTT5=
EXTT6=
EXTT7=
EXTT8=
EXTT9=Jimmy
EXTT10=Jimmy
EXTT11=Speedy and Jimmy
EXTT12=Speedy and Jimmy
EXTT13=Speedy and Jimmy
EXTT14=Speedy and Jimmy
EXTT15=Speedy and Jimmy
EXTT16=
EXTT17=
EXTT18=
EXTT19=
EXTT20=
EXTT21=
EXTT22=
EXTT23=
EXTT24=
EXTT25=
EXTT26=
EXTT27=
EXTT28=
EXTT29=
PLAYORDER=
